Coordinates
version=1
nRows=11
nColumns=63
inDegrees=yes

Units are S.I. units (second, meters, Newtons, ...)
If the header above contains a line with 'inDegrees', this indicates whether rotational values are in degrees (yes) or radians (no).

endheader
time	pelvis_tilt	pelvis_list	pelvis_rotation	pelvis_tx	pelvis_ty	pelvis_tz	hip_flexion_r	hip_adduction_r	hip_rotation_r	knee_angle_r	knee_angle_r_beta	ankle_angle_r	subtalar_angle_r	mtp_angle_r	hip_flexion_l	hip_adduction_l	hip_rotation_l	knee_angle_l	knee_angle_l_beta	ankle_angle_l	subtalar_angle_l	mtp_angle_l	L5_S1_Flex_Ext	L5_S1_Lat_Bending	L5_S1_axial_rotation	L4_L5_Flex_Ext	L4_L5_Lat_Bending	L4_L5_axial_rotation	L3_L4_Flex_Ext	L3_L4_Lat_Bending	L3_L4_axial_rotation	L2_L3_Flex_Ext	L2_L3_Lat_Bending	L2_L3_axial_rotation	L1_L2_Flex_Ext	L1_L2_Lat_Bending	L1_L2_axial_rotation	L1_T12_Flex_Ext	L1_T12_Lat_Bending	L1_T12_axial_rotation	Abs_r3	Abs_r2	Abs_r1	Abs_t1	Abs_t2	neck_flexion	neck_bending	neck_rotation	arm_flex_r	arm_add_r	arm_rot_r	elbow_flex_r	pro_sup_r	wrist_flex_r	wrist_dev_r	arm_flex_l	arm_add_l	arm_rot_l	elbow_flex_l	pro_sup_l	wrist_flex_l	wrist_dev_l
      3.16326531	      3.08334240	     -6.11671036	     98.99844511	      0.25779197	      0.88221592	      0.60258225	     -3.74841059	      3.81254970	      4.83474522	      1.42998543	      0.02495795	      9.19755826	    -11.25029217	      0.00000000	      6.32631361	     -2.60513585	      1.36580169	     20.34580161	      0.35510123	     19.58095548	    -12.11850162	      0.00000000	     -0.41642281	      0.34771955	      2.06840957	     -0.77333880	      0.46246701	      2.19768517	     -0.68414103	      0.84544532	      2.19768517	     -0.47592963	      0.84544532	      1.80985838	     -0.38669022	      0.70906971	      1.68058278	     -0.23794399	      0.53861759	      1.55130718	     -2.97446647	      3.93347313	     11.50387353	      0.00000000	      0.00000000	      5.41254460	     -2.16841634	     -7.36625088	     -1.11729449	    -15.29488910	      8.58253958	     44.27017012	     77.08078810	     -7.34680003	      4.69472960	    -22.21227012	    -17.33410157	     11.80329574	     90.05104099	     86.65946308	      6.08212770	     -0.27400661
      3.18367347	      3.15067023	     -6.18385060	     99.58327785	      0.25722082	      0.88212130	      0.60292078	     -3.67315408	      3.90522794	      2.91924887	      1.49458873	      0.02608549	      9.87770441	     -9.19824427	      0.00000000	      6.68895944	     -2.67331897	      1.61622105	     20.70107373	      0.36130190	     19.66622628	    -11.63272217	      0.00000000	     -0.42224284	      0.35486360	      1.99493685	     -0.78414717	      0.47196858	      2.11962040	     -0.69370276	      0.86281535	      2.11962040	     -0.48258134	      0.86281535	      1.74556974	     -0.39209470	      0.72363785	      1.62088619	     -0.24126956	      0.54968371	      1.49620263	     -3.01603836	      4.01428799	     11.09524026	      0.00000000	      0.00000000	      5.28415382	     -2.08238677	     -7.70978689	     -1.00865519	    -15.49690350	      8.71509570	     44.48083378	     76.73540012	     -7.23273436	      5.39198327	    -22.26179531	    -17.32852354	     11.88751899	     90.17551688	     86.93812973	      5.67595097	     -0.39623949
      3.20408163	      3.28751577	     -6.45619877	    100.03704475	      0.25684299	      0.88162274	      0.60275602	     -3.46209682	      4.09460272	      4.65892772	      1.39475491	      0.02434307	      9.24897613	    -12.36682884	      0.00000000	      7.25283593	     -2.60996057	      2.70022865	     21.09789603	      0.36822775	     19.36038186	    -12.83432027	      0.00000000	     -0.38485259	      0.36302282	      1.97786128	     -0.71470974	      0.48282035	      2.10147761	     -0.63227432	      0.88265369	      2.10147761	     -0.43984802	      0.88265369	      1.73062862	     -0.35737411	      0.74027614	      1.60701229	     -0.21990477	      0.56232235	      1.48339596	     -2.74896354	      4.10658676	     11.00027109	      0.00000000	      0.00000000	      5.11711072	     -1.86946716	     -8.10550444	     -1.39780192	    -15.20468414	      6.82248419	     44.92621713	     78.33599520	     -5.67578726	      7.09959073	    -22.19245051	    -17.59980808	     12.32427073	     90.36400512	     86.46941542	      5.47253098	     -0.00941638
      3.22448980	      3.39191422	     -6.58623349	    100.54527137	      0.25650489	      0.88153274	      0.60258621	     -3.36556783	      4.24097882	      4.14167899	      1.30360134	      0.02275214	      9.71281086	    -11.89733166	      0.00000000	      7.59034901	     -2.65140658	      3.18262466	     21.34641059	      0.37256515	     19.41134750	    -12.91094924	      0.00000000	     -0.37695867	      0.37031645	      1.89216584	     -0.70004995	      0.49252088	      2.01042620	     -0.61930540	      0.90038742	      2.01042620	     -0.43082606	      0.90038742	      1.65564511	     -0.35004382	      0.75514931	      1.53738474	     -0.21539418	      0.57362018	      1.41912438	     -2.69257808	      4.18909375	     10.52365875	      0.00000000	      0.00000000	      5.24113878	     -1.86043125	     -8.03644729	     -1.34233348	    -15.26349545	      6.86232301	     45.06292373	     77.89945617	     -5.32305563	      7.82431327	    -22.31539191	    -17.65891278	     12.25945253	     90.56290818	     86.48223163	      5.44381729	      0.22470666
      3.24489796	      3.56621352	     -6.79666766	    101.09288212	      0.25603074	      0.88122517	      0.60221458	     -3.15867702	      4.45539063	      4.98389855	      1.19685354	      0.02088903	      9.75077755	    -13.39470854	      0.00000000	      8.02846410	     -2.65927425	      4.14912498	     21.64628845	      0.37779900	     19.40197611	    -13.61870257	      0.00000000	     -0.34497269	      0.38383290	      1.80603234	     -0.64064879	      0.51049776	      1.91890936	     -0.56675563	      0.93325131	      1.91890936	     -0.39426929	      0.93325131	      1.58027830	     -0.32034164	      0.78271205	      1.46740128	     -0.19711740	      0.59455716	      1.35452425	     -2.46410544	      4.34199453	     10.04461006	      0.00000000	      0.00000000	      5.42901144	     -1.84449270	     -7.92006529	     -1.51565044	    -15.07221700	      6.06631862	     45.23959905	     78.59823778	     -4.67105824	      8.39056650	    -22.48355543	    -17.80238390	     12.30942296	     90.71040433	     86.52877495	      5.53593069	      0.13127040
      3.26530612	      3.73178034	     -6.87263132	    101.44001454	      0.25593445	      0.88119665	      0.60171477	     -3.07507903	      4.66887097	      5.53510699	      1.07780050	      0.01881117	      9.98192748	    -14.04398324	      0.00000000	      8.24361057	     -2.81225667	      4.41948679	     21.84399422	      0.38124962	     19.66120851	    -13.47336706	      0.00000000	     -0.33130896	      0.40047609	      1.71153332	     -0.61527388	      0.53263320	      1.81850415	     -0.54430750	      0.97371757	      1.81850415	     -0.37865301	      0.97371757	      1.49759165	     -0.30765350	      0.81665085	      1.39062082	     -0.18930994	      0.62033747	      1.28364999	     -2.36650679	      4.53026566	      9.51903486	      0.00000000	      0.00000000	      5.64346921	     -1.92988971	     -7.50465040	     -1.45315868	    -15.05202166	      6.35597524	     45.26529733	     78.60034092	     -4.89133623	      8.18489483	    -22.86628249	    -17.80859691	     12.10440199	     90.75343206	     86.84403308	      5.47079411	     -0.70899524
      3.28571429	      3.87662119	     -6.96763620	    101.88262560	      0.25559574	      0.88125942	      0.60137415	     -2.94866566	      4.83528134	      5.34117381	      0.97727603	      0.01705668	     10.46483228	    -13.67522746	      0.00000000	      8.44288807	     -2.92475723	      4.73699207	     21.92874322	      0.38272877	     19.87399888	    -13.28378984	      0.00000000	     -0.31194330	      0.41776748	      1.58378790	     -0.57930990	      0.55563075	      1.68277465	     -0.51249165	      1.01575985	      1.68277465	     -0.35652000	      1.01575985	      1.38581442	     -0.28967055	      0.85191144	      1.28682767	     -0.17824440	      0.64712183	      1.18784093	     -2.22817981	      4.72586928	      8.80855319	      0.00000000	      0.00000000	      5.82751186	     -1.89914387	     -6.88163861	     -1.36269103	    -15.03765872	      6.75426812	     45.30306767	     78.90178118	     -5.29765275	      7.67094972	    -23.25761821	    -17.74636104	     11.84369794	     90.51516413	     87.26500855	      5.58468911	     -2.13909479
      3.30612245	      3.99528937	     -6.87702824	    102.10819820	      0.25556307	      0.88160503	      0.60083853	     -3.02425552	      5.01147239	      5.42966941	      0.89180541	      0.01556494	     10.84031366	    -13.56119964	      0.00000000	      8.37333654	     -3.09236867	      4.84889331	     21.93782438	      0.38288727	     20.13936426	    -12.95655389	      0.00000000	     -0.31653982	      0.44121625	      1.48950108	     -0.58784610	      0.58681762	      1.58259490	     -0.52004327	      1.07277320	      1.58259490	     -0.36177336	      1.07277320	      1.30331345	     -0.29393888	      0.89972818	      1.21021963	     -0.18087085	      0.68344398	      1.11712581	     -2.26101227	      4.99112651	      8.28415817	      0.00000000	      0.00000000	      5.78876660	     -1.92177509	     -6.15314483	     -1.19865609	    -15.05352286	      7.30731779	     45.27219401	     79.24688742	     -5.88652073	      6.87828801	    -23.57096706	    -17.76223608	     11.73158594	     90.21893125	     87.55235776	      5.57682694	     -3.57597304
      3.32653061	      4.08797054	     -6.76773823	    102.17516509	      0.25565077	      0.88206680	      0.60029773	     -3.11410489	      5.14222339	      5.92807802	      0.82078495	      0.01432540	     10.84643163	    -13.98987454	      0.00000000	      8.23058393	     -3.23271804	      4.87914802	     21.88635239	      0.38198891	     20.21140824	    -12.86690331	      0.00000000	     -0.32014128	      0.46466697	      1.46303976	     -0.59453437	      0.61800707	      1.55447975	     -0.52596011	      1.12979127	      1.55447975	     -0.36588947	      1.12979127	      1.28015979	     -0.29728319	      0.94754888	      1.18871981	     -0.18292873	      0.71976914	      1.09727982	     -2.28673714	      5.25640570	      8.13698824	      0.00000000	      0.00000000	      5.64784648	     -1.94630497	     -5.66162973	     -1.21931426	    -15.00939890	      7.26472693	     45.42197811	     79.89090881	     -6.11824630	      6.41515500	    -23.59131655	    -17.89799417	     12.04863079	     89.71783336	     87.74001323	      5.26253999	     -5.04299204
      3.34693878	      4.17421184	     -6.66842191	    102.22659867	      0.25581444	      0.88242421	      0.59959836	     -3.19916991	      5.26378394	      5.58725552	      0.78746817	      0.01374391	     10.98246755	    -13.33384855	      0.00000000	      8.10231876	     -3.38912784	      4.84037945	     21.90826673	      0.38237139	     20.17811662	    -12.71233979	      0.00000000	     -0.31258029	      0.48478800	      1.45327649	     -0.58049286	      0.64476804	      1.54410627	     -0.51353816	      1.17871354	      1.54410627	     -0.35724802	      1.17871354	      1.27161693	     -0.29026206	      0.98857969	      1.18078715	     -0.17860838	      0.75093661	      1.08995737	     -2.23272977	      5.48401881	      8.08268787	      0.00000000	      0.00000000	      5.35175848	     -1.85655702	     -5.29167846	     -1.24159702	    -15.00044701	      7.47039768	     45.47607690	     80.46912740	     -6.55853407	      5.65285369	    -23.65365362	    -17.91986255	     12.18324116	     89.30663730	     87.99499151	      5.23393137	     -5.93122502
      3.36734694	      4.16074182	     -6.49704084	    102.09661185	      0.25621965	      0.88277764	      0.59875283	     -3.40801041	      5.28938903	      5.90228054	      0.75511675	      0.01317927	     10.70294811	    -13.59105468	      0.00000000	      7.79210510	     -3.44087265	      4.84532831	     21.88995751	      0.38205183	     19.73541977	    -13.06868668	      0.00000000	     -0.31794203	      0.49428889	      1.50151560	     -0.59045015	      0.65740422	      1.59536033	     -0.52234697	      1.20181401	      1.59536033	     -0.36337595	      1.20181401	      1.31382615	     -0.29524097	      1.00795390	      1.21998143	     -0.18167208	      0.76565349	      1.12613670	     -2.27102815	      5.59149477	      8.35097933	      0.00000000	      0.00000000	      5.03987268	     -1.84465061	     -5.17325221	     -1.38564908	    -14.95679743	      7.41338363	     45.62631496	     81.17841821	     -6.56037247	      4.98442748	    -23.62598171	    -17.94930058	     12.36937375	     89.07635871	     88.06386966	      5.00483340	     -6.02437000
